<?xml version="1.0" encoding="UTF-8" standalone="no"?>
<!-- Created with Inkscape (http://www.inkscape.org/) -->

<svg
   width="210mm"
   height="297mm"
   viewBox="0 0 210 297"
   version="1.1"
   id="svg1"
   xml:space="preserve"
   inkscape:version="1.4.3 (0d15f75, 2025-12-25)"
   sodipodi:docname="Vase1.svg"
   xmlns:inkscape="http://www.inkscape.org/namespaces/inkscape"
   xmlns:sodipodi="http://sodipodi.sourceforge.net/DTD/sodipodi-0.dtd"
   xmlns="http://www.w3.org/2000/svg"
   xmlns:svg="http://www.w3.org/2000/svg"><sodipodi:namedview
     id="namedview1"
     pagecolor="#ffffff"
     bordercolor="#000000"
     borderopacity="0.25"
     inkscape:showpageshadow="2"
     inkscape:pageopacity="0.0"
     inkscape:pagecheckerboard="0"
     inkscape:deskcolor="#d1d1d1"
     inkscape:document-units="mm"
     inkscape:zoom="0.50835204"
     inkscape:cx="-277.36684"
     inkscape:cy="8.8521332"
     inkscape:window-width="1920"
     inkscape:window-height="1009"
     inkscape:window-x="-8"
     inkscape:window-y="-8"
     inkscape:window-maximized="1"
     inkscape:current-layer="layer1" /><defs
     id="defs1" /><g
     inkscape:label="Layer 1"
     inkscape:groupmode="layer"
     id="layer1"><path
       style="fill:#cccccc;stroke:#000000;stroke-width:0.995573;stroke-dasharray:none"
       d="m 71.46112,-126.50221 c -17.61773,29.535598 -22.79941,40.935301 -23.83575,62.180205 -1.03633,21.244903 49.74417,52.335003 55.44402,61.1438637 5.69986,8.808861 12.95421,26.9447553 6.21802,53.3713473 C 102.55122,76.619786 61.09776,120.14593 41.92552,123.77311 22.7533,127.40029 -1.2242808e-7,126.36396 -1.2242808e-7,126.36396 c 0,0 -22.75328987757192,1.03633 -41.92551987757192,-2.59085 -19.17224,-3.62718 -60.6257,-47.153324 -67.3619,-73.579904 -6.73618,-26.426592 0.51818,-44.5624903 6.21803,-53.3713513 5.69985,-8.8088607 56.48035,-39.8989607 55.44402,-61.1438637 -1.03634,-21.244904 -6.21802,-32.644607 -23.83575,-62.180201 z"
       id="path4"
       sodipodi:nodetypes="csssscssssc" /></g></svg>
