<?xml version="1.0" encoding="UTF-8" standalone="no"?>
<!-- Created with Inkscape (http://www.inkscape.org/) -->

<svg
   width="100mm"
   height="100mm"
   viewBox="0 0 100 100"
   version="1.1"
   id="svg1"
   xml:space="preserve"
   inkscape:version="1.4.2 (f4327f4, 2025-05-13)"
   sodipodi:docname="AddVase2.svg"
   xmlns:inkscape="http://www.inkscape.org/namespaces/inkscape"
   xmlns:sodipodi="http://sodipodi.sourceforge.net/DTD/sodipodi-0.dtd"
   xmlns="http://www.w3.org/2000/svg"
   xmlns:svg="http://www.w3.org/2000/svg"><sodipodi:namedview
     id="namedview1"
     pagecolor="#ffffff"
     bordercolor="#000000"
     borderopacity="0.25"
     inkscape:showpageshadow="2"
     inkscape:pageopacity="0.0"
     inkscape:pagecheckerboard="0"
     inkscape:deskcolor="#d1d1d1"
     inkscape:document-units="mm"
     inkscape:zoom="0.71891835"
     inkscape:cx="83.458713"
     inkscape:cy="121.71062"
     inkscape:window-width="1920"
     inkscape:window-height="1009"
     inkscape:window-x="-8"
     inkscape:window-y="-8"
     inkscape:window-maximized="1"
     inkscape:current-layer="layer1" /><defs
     id="defs1" /><g
     inkscape:label="Layer 1"
     inkscape:groupmode="layer"
     id="layer1"><path
       style="fill:#cccccc;stroke:#666666;stroke-width:2.23143"
       d="M 50,72.994557 H 27.416055 v -4.311481 c 0,0 -2.347378,-1.194512 -3.490244,-1.847776 C 22.111957,65.798496 20.227312,64.845354 18.58779,63.550363 15.929562,61.450738 13.591532,58.949234 11.401989,56.364567 9.8798794,54.567775 8.4761094,52.653619 7.2958204,50.615926 5.4846524,47.489058 3.9360214,44.184418 2.7790314,40.761114 2.0826554,38.700676 1.6128724,36.554536 1.3418724,34.396549 1.0347774,31.951105 1.1365634,27.005442 1.1365634,27.005442 H 98.86344 c 0,0 0.10175,4.945663 -0.20532,7.391107 -0.27099,2.157987 -0.74078,4.304127 -1.43715,6.364565 -1.15699,3.423304 -2.70563,6.727944 -4.51679,9.854812 -1.1803,2.037694 -2.58406,3.951849 -4.10618,5.748641 -2.18953,2.584668 -4.52756,5.086171 -7.18579,7.185797 -1.63953,1.294991 -3.52416,2.248132 -5.33802,3.284937 -1.14287,0.653263 -3.49025,1.847775 -3.49025,1.847775 v 4.311481 H 50"
       id="path2"
       sodipodi:nodetypes="cccssssssccssssssccc" /><text
       xml:space="preserve"
       style="font-size:16.9333px;font-family:'DejaVu Sans Mono';-inkscape-font-specification:'DejaVu Sans Mono';text-align:center;writing-mode:lr-tb;direction:ltr;text-anchor:middle;fill:#cccccc;stroke:#000000;stroke-width:2"
       x="49.727146"
       y="90.990227"
       id="text4"><tspan
         sodipodi:role="line"
         id="tspan4"
         style="font-style:normal;font-variant:normal;font-weight:normal;font-stretch:normal;font-family:Arial;-inkscape-font-specification:Arial;stroke:#000000;stroke-width:2"
         x="49.727146"
         y="90.990227">PROFILE</tspan></text><text
       xml:space="preserve"
       style="font-size:23.6438px;font-family:'DejaVu Sans Mono';-inkscape-font-specification:'DejaVu Sans Mono';text-align:center;writing-mode:lr-tb;direction:ltr;text-anchor:middle;fill:#1a1a1a;stroke:#000000;stroke-width:2.79258"
       x="49.952385"
       y="21.054846"
       id="text4-7"><tspan
         sodipodi:role="line"
         id="tspan4-1"
         style="font-style:normal;font-variant:normal;font-weight:normal;font-stretch:normal;font-family:Arial;-inkscape-font-specification:Arial;fill:#1a1a1a;stroke:#000000;stroke-width:2.79258"
         x="49.952385"
         y="21.054846">ADD</tspan></text></g></svg>
