<?xml version="1.0" encoding="UTF-8" standalone="no"?>
<!-- Created with Inkscape (http://www.inkscape.org/) -->

<svg
   version="1.1"
   id="svg1"
   width="289.81274"
   height="346.62912"
   viewBox="0 0 289.81275 346.62912"
   xmlns="http://www.w3.org/2000/svg"
   xmlns:svg="http://www.w3.org/2000/svg">
  <defs
     id="defs1" />
  <g
     id="g1"
     transform="translate(-0.42695263,-13.352111)">
    <path
       style="fill:#000000"
       d="m 15.833926,358.69135 c -5.365803,-1.60798 -8.8032561,-5.02036 -12.0503071,-11.96239 -2.79512596,-5.97584 -2.80792796,-6.6201 -3.17946596,-160 C 0.19298394,16.988124 -0.23604506,26.250831 8.4213689,17.955733 l 4.0635051,-3.893445 109.579496,-0.355089 109.57949,-0.355088 28.99999,37.616288 29,37.616289 0.33334,110.738802 c 0.46257,153.67334 0.80864,139.04431 -3.49751,147.84576 -2.27618,4.65235 -5.28278,8.4425 -8.05751,10.15738 -4.38613,2.71078 -5.58354,2.73462 -131.60236,2.62106 -69.946773,-0.063 -128.890423,-0.62838 -130.985884,-1.25634 z M 276.01381,346.42193 c 5.71792,-4.74546 5.63004,-2.73255 5.63004,-128.96009 V 97.395624 h -25.92439 c -25.27804,0 -25.97614,-0.07388 -28,-2.963341 -1.74569,-2.492319 -2.0756,-8.320483 -2.0756,-36.666668 V 24.062289 H 120.91659 16.189313 l -3.272727,3.272727 c -2.684981,2.684982 -3.2926301,4.660461 -3.3835551,11.000001 -0.09003,6.277415 -0.01131,288.695303 0.08324,298.624983 0.04739,4.97715 6.1682881,10.89516 11.7477401,11.35833 2.72058,0.22585 60.72343,0.22877 128.895219,0.006 89.25411,-0.29102 124.45418,-0.82366 125.75458,-1.90289 z M 35.952387,314.37082 c -2.21983,-2.21982 -2.33714,-8.21577 -2,-102.22265 0.19697,-54.92548 0.7614,-100.26758 1.25428,-100.76022 1.61404,-1.61328 218.710723,-0.7585 220.671553,0.86885 2.59797,2.15612 2.61483,200.10754 0.0172,202.26335 -1.21994,1.01247 -34.367,1.56557 -109.66666,1.82993 -101.724843,0.35714 -108.053573,0.24355 -110.276373,-1.97926 z M 105.64386,286.03816 V 266.6807 l -31.666673,0.35746 -31.66666,0.35747 -0.37513,17.26282 c -0.20633,9.49455 -0.0751,18.04455 0.29148,19 0.5216,1.35925 7.49242,1.73718 32.0418,1.73718 h 31.375183 z m 72,0.0241 v -19.33333 h -32 -32 v 19.33333 19.33334 h 32 32 z m 71.08943,16.52733 c 0.40359,-1.5433 0.38238,-10.2433 -0.0471,-19.33333 l -0.78092,-16.52733 h -31.1307 -31.13069 v 19.33333 19.33334 h 31.17782 c 30.57256,0 31.19207,-0.0545 31.91161,-2.80601 z M 105.64386,237.39563 v -18.66667 h -32.000003 -32 v 17.77778 c 0,9.77778 0.4,18.17778 0.88889,18.66666 0.48889,0.48889 14.88889,0.88889 32,0.88889 h 31.111113 z m 72,0 v -18.66667 h -32 -32 v 18.66667 18.66666 h 32 32 z m 70.66666,0 v -18.66667 h -31.33333 -31.33333 v 18.66667 18.66666 h 31.33333 31.33333 z m -142.66666,-48.6908 v -18.02414 l -31.666673,0.35747 -31.66666,0.35746 -0.37204,17.66667 -0.37203,17.66667 h 32.0387 32.038703 z m 72,0 v -18.02414 l -31.66667,0.35747 -31.66666,0.35746 -0.37204,17.66667 -0.37203,17.66667 h 32.0387 32.0387 z m 70.66666,0.0241 v -18 h -31.33333 -31.33333 v 18 18 h 31.33333 31.33333 z M 105.64386,140.06229 v -18.66667 h -32.000003 -32 v 18.66667 18.66667 h 32 32.000003 z m 72,0 v -18.66667 h -32 -32 v 18.66667 18.66667 h 32 32 z m 70.66666,0 v -18.66667 h -31.33333 -31.33333 v 18.66667 18.66667 h 31.33333 31.33333 z M 38.227937,69.387049 c -2.817,-0.485563 -4.0398,-1.536159 -4.3531,-3.740056 -0.97706,-6.873108 -0.6708,-6.918036 47.15656,-6.918036 24.416903,0 45.343433,0.364193 46.503413,0.809318 2.99996,1.151195 2.82038,8.608915 -0.22428,9.314091 -3.54343,0.820693 -84.600793,1.307208 -89.082593,0.534683 z M 273.49477,83.062291 c -0.99491,-1.283334 -4.28356,-5.333334 -7.30811,-9.000001 -3.02455,-3.666666 -11.284,-14.365282 -18.35433,-23.774701 L 234.97719,33.179554 v 26.108035 26.108035 h 20.16326 c 19.00333,0 20.05919,-0.134229 18.35432,-2.333333 z"
       id="path1" />
  </g>
</svg>
