<?xml version="1.0" encoding="UTF-8" standalone="no"?>
<!-- Created with Inkscape (http://www.inkscape.org/) -->

<svg
   width="173.56892mm"
   height="251.6629mm"
   viewBox="0 0 173.56892 251.6629"
   version="1.1"
   id="svg1"
   xml:space="preserve"
   inkscape:version="1.4.3 (0d15f75, 2025-12-25)"
   sodipodi:docname="vase3.svg"
   xmlns:inkscape="http://www.inkscape.org/namespaces/inkscape"
   xmlns:sodipodi="http://sodipodi.sourceforge.net/DTD/sodipodi-0.dtd"
   xmlns="http://www.w3.org/2000/svg"
   xmlns:svg="http://www.w3.org/2000/svg"><sodipodi:namedview
     id="namedview1"
     pagecolor="#ffffff"
     bordercolor="#000000"
     borderopacity="0.25"
     inkscape:showpageshadow="2"
     inkscape:pageopacity="0.0"
     inkscape:pagecheckerboard="0"
     inkscape:deskcolor="#d1d1d1"
     inkscape:document-units="mm"
     inkscape:zoom="0.35945918"
     inkscape:cx="460.4139"
     inkscape:cy="207.2558"
     inkscape:window-width="1920"
     inkscape:window-height="1009"
     inkscape:window-x="-8"
     inkscape:window-y="-8"
     inkscape:window-maximized="1"
     inkscape:current-layer="layer1" /><defs
     id="defs1" /><g
     inkscape:label="Layer 1"
     inkscape:groupmode="layer"
     id="layer1"><rect
       style="fill:#ffffff;stroke:#ffffff;stroke-width:2;stroke-dasharray:none"
       id="rect1"
       width="173.56892"
       height="251.6629"
       x="0"
       y="0" /><path
       style="fill:#808080;stroke:#000000;stroke-width:2;stroke-dasharray:none"
       d="M 68.288837,249.81664 C 39.246474,251.63428 44.754028,244.87577 23.103128,193.47252 8.9185081,159.79554 5.1305481,146.92622 2.0092381,121.80786 c -3.32722,-26.775246 1.75732,-52.99024 13.2164299,-68.14133 3.77211,-4.98747 8.21732,-10.91251 9.87822,-13.16677 2.41744,-3.28099 2.5612,-5.81707 0.72037,-12.71246 -3.15861,-11.83376 -0.43748,-17.724765 10.47522,-22.678114 7.85236,-3.56422 13.99186,-4.078674 49.03514,-4.108899 22.032442,-0.01913 43.499662,0.921188 47.705022,2.0893 10.96347,3.045312 19.39745,12.037261 17.68667,18.856893 -3.9608,15.78953 -3.84318,16.57284 3.83665,25.54504 13.29915,15.537 16.73028,25.49837 17.81074,51.708044 1.15824,28.098036 -2.76933,50.707236 -13.14742,75.682646 -22.18862,53.39852 -26.80564,63.38774 -31.61996,68.41291 -9.32621,9.37266 -27.16114,7.5151 -49.818857,6.52152 z"
       id="path1"
       sodipodi:nodetypes="csscccccsccccccc" /></g></svg>
