<?xml version="1.0" encoding="UTF-8" standalone="no"?>
<svg
   width="190mm"
   height="272mm"
   viewBox="0 0 190 272"
   version="1.1"
   id="svg1"
   sodipodi:docname="vase.svg"
   inkscape:version="1.4.2 (f4327f4, 2025-05-13)"
   inkscape:export-filename="vase.svg"
   inkscape:export-xdpi="96"
   inkscape:export-ydpi="96"
   xmlns:inkscape="http://www.inkscape.org/namespaces/inkscape"
   xmlns:sodipodi="http://sodipodi.sourceforge.net/DTD/sodipodi-0.dtd"
   xmlns="http://www.w3.org/2000/svg"
   xmlns:svg="http://www.w3.org/2000/svg">
  <defs
     id="defs1" />
  <sodipodi:namedview
     id="namedview1"
     pagecolor="#ffffff"
     bordercolor="#000000"
     borderopacity="0.25"
     inkscape:showpageshadow="2"
     inkscape:pageopacity="0.0"
     inkscape:pagecheckerboard="0"
     inkscape:deskcolor="#d1d1d1"
     inkscape:document-units="mm"
     showgrid="false"
     inkscape:zoom="0.30066701"
     inkscape:cx="73.170647"
     inkscape:cy="131.37457"
     inkscape:window-width="1920"
     inkscape:window-height="1009"
     inkscape:window-x="-8"
     inkscape:window-y="-8"
     inkscape:window-maximized="1"
     inkscape:current-layer="svg1" />
  <rect
     style="fill:#ffffff;stroke:#ffffff;stroke-width:1.5;stroke-dasharray:none"
     id="rect1"
     width="190"
     height="272"
     x="0"
     y="0" />
  <path
     id="Part__Part2DObjectPython_w0000"
     d="m 159.18761,270.96251 c 13.49325,-20.71752 17.5412,-31.07628 20.28484,-39.70858 2.74362,-8.63229 4.18289,-15.53814 5.53222,-22.44398 1.34931,-6.90584 2.60868,-13.81167 3.05844,-20.71751 0.44978,-6.90585 0.0899,-13.81169 -0.26989,-20.71752 -0.35982,-6.90584 -0.71965,-13.81168 -1.70917,-20.71752 -0.9895,-6.90584 -2.60869,-13.81168 -4.40778,-20.71752 -1.7991,-6.90584 -3.77808,-13.81167 -6.20685,-20.71751 -2.42876,-6.905844 -5.30732,-13.811684 -8.3658,-20.717523 -3.05847,-6.90584 -6.29685,-13.811679 -8.72564,-20.717518 -2.4288,-6.90584 -4.04799,-13.81168 -4.72265,-22.443979 -0.67466,-8.632299 -0.40479,-18.991058 7.69114,-39.7085769 H 94.941225 28.535978 c 8.095928,20.7175189 8.365798,31.0762779 7.691139,39.7085769 -0.674661,8.632299 -2.293854,15.538139 -4.722643,22.443979 -2.428789,6.905839 -5.667175,13.811678 -8.725647,20.717518 -3.058471,6.905839 -5.937028,13.811679 -8.365798,20.717523 -2.428771,6.90584 -4.407757,13.81167 -6.2068456,20.71751 -1.7990897,6.90584 -3.4182817,13.81168 -4.4077928,20.71752 -0.9895112,6.90584 -1.3493391,13.81168 -1.7091682,20.71752 -0.359829,6.90583 -0.7196569,13.81167 -0.26989,20.71752 0.4497682,6.90584 1.7091323,13.81167 3.0584538,20.71751 1.3493206,6.90584 2.7885998,13.81169 5.5322198,22.44398 2.743622,8.6323 6.791586,18.99106 20.284835,39.70858 h 64.246384 64.246385"
     stroke="#000000"
     stroke-width="0.7 px"
     style="fill:#4d4d4d;fill-opacity:1;fill-rule:evenodd;stroke-width:1.63131;stroke-linecap:square;stroke-miterlimit:4;stroke-dasharray:none" />
</svg>
