<?xml version="1.0" encoding="UTF-8" standalone="no"?>
<!-- Created with Inkscape (http://www.inkscape.org/) -->

<svg
   width="115mm"
   height="254mm"
   viewBox="0 0 115 254"
   version="1.1"
   id="svg1"
   xml:space="preserve"
   inkscape:version="1.4.2 (f4327f4, 2025-05-13)"
   sodipodi:docname="vase2.svg"
   xmlns:inkscape="http://www.inkscape.org/namespaces/inkscape"
   xmlns:sodipodi="http://sodipodi.sourceforge.net/DTD/sodipodi-0.dtd"
   xmlns="http://www.w3.org/2000/svg"
   xmlns:svg="http://www.w3.org/2000/svg"><sodipodi:namedview
     id="namedview1"
     pagecolor="#ffffff"
     bordercolor="#000000"
     borderopacity="0.25"
     inkscape:showpageshadow="2"
     inkscape:pageopacity="0.0"
     inkscape:pagecheckerboard="0"
     inkscape:deskcolor="#d1d1d1"
     inkscape:document-units="mm"
     inkscape:zoom="0.35945918"
     inkscape:cx="114.06024"
     inkscape:cy="40.338378"
     inkscape:window-width="1920"
     inkscape:window-height="1009"
     inkscape:window-x="-8"
     inkscape:window-y="-8"
     inkscape:window-maximized="1"
     inkscape:current-layer="layer1" /><defs
     id="defs1" /><g
     inkscape:label="Layer 1"
     inkscape:groupmode="layer"
     id="layer1"><rect
       style="fill:#ffffff;stroke:#ffffff;stroke-width:2;stroke-dasharray:none"
       id="rect1"
       width="115"
       height="254"
       x="0"
       y="0" /><path
       style="fill:#cccccc;stroke:#000000;stroke-width:2.11573;stroke-dasharray:none"
       d="m 33.731803,252.77455 c -3.807316,-0.16637 -9.675792,0.99968 -10.134599,-1.15926 -0.458806,-2.15894 0.598797,-4.91759 3.051786,-8.84545 2.781091,-4.45324 0.714567,-17.54378 -11.366976,-72.00497 C -4.7811949,80.323989 -4.4377578,73.744161 21.561101,50.465607 37.955805,35.786307 38.515712,28.12368 24.340146,12.433026 L 14.063374,1.0578654 h 43.48851 43.488506 L 93.751597,8.8726623 C 76.196405,27.694715 76.585033,37.802958 95.458463,53.268295 c 23.401307,19.175612 23.722127,32.091736 3.123972,125.743155 -10.966002,49.85738 -12.488475,60.31437 -9.574148,65.75973 1.365165,2.55079 1.851691,5.52286 1.848306,7.03345 -0.0034,1.51059 -4.000605,0.58638 -11.01894,0.79511 -8.199565,0.52626 -36.076931,0.0771 -46.10585,0.17481 z"
       id="path1"
       sodipodi:nodetypes="cssssscccssssscc" /></g></svg>
