<?xml version="1.0" encoding="UTF-8" standalone="no"?>
<!-- Created with Inkscape (http://www.inkscape.org/) -->

<svg
   width="166.81958mm"
   height="256.01886mm"
   viewBox="0 0 166.81958 256.01886"
   version="1.1"
   id="svg1"
   xml:space="preserve"
   inkscape:version="1.4.3 (0d15f75, 2025-12-25)"
   sodipodi:docname="vase4.svg"
   xmlns:inkscape="http://www.inkscape.org/namespaces/inkscape"
   xmlns:sodipodi="http://sodipodi.sourceforge.net/DTD/sodipodi-0.dtd"
   xmlns="http://www.w3.org/2000/svg"
   xmlns:svg="http://www.w3.org/2000/svg"><sodipodi:namedview
     id="namedview1"
     pagecolor="#ffffff"
     bordercolor="#000000"
     borderopacity="0.25"
     inkscape:showpageshadow="2"
     inkscape:pageopacity="0.0"
     inkscape:pagecheckerboard="0"
     inkscape:deskcolor="#d1d1d1"
     inkscape:document-units="mm"
     showguides="true"
     inkscape:zoom="0.35945918"
     inkscape:cx="-87.631648"
     inkscape:cy="465.97781"
     inkscape:window-width="1920"
     inkscape:window-height="1009"
     inkscape:window-x="-8"
     inkscape:window-y="-8"
     inkscape:window-maximized="1"
     inkscape:current-layer="layer1"><sodipodi:guide
       position="78.6049,270.98173"
       orientation="0,-1"
       id="guide1"
       inkscape:locked="false" /></sodipodi:namedview><defs
     id="defs1" /><g
     inkscape:label="Layer 1"
     inkscape:groupmode="layer"
     id="layer1"
     transform="translate(-82.592119,-114.50961)"><rect
       style="fill:#ffffff;stroke:#ffffff;stroke-width:2;stroke-dasharray:none"
       id="rect1"
       width="166.81958"
       height="256.01886"
       x="82.592117"
       y="114.50961" /><path
       style="fill:#808080;stroke:#000000;stroke-width:2;stroke-dasharray:none"
       d="m 133.50173,367.93934 c -19.40137,-2.07598 -30.49168,-5.332 -36.881068,-10.82792 -7.894045,-6.79015 -13.02654,-22.21343 -13.028542,-39.15069 -0.0025,-21.69724 5.660305,-31.49887 34.65757,-59.98796 30.2955,-29.76454 33.03218,-35.7577 33.02433,-72.32031 -0.005,-21.72959 -0.62059,-26.03114 -5.53873,-38.70673 -3.04343,-7.84315 -5.98138,-17.11997 -6.52883,-20.61506 -0.86967,-5.55221 -0.26332,-6.60367 4.79872,-8.32592 7.33336,-2.49491 28.5172,-3.33448 38.21765,-1.51467 11.10125,2.08259 12.41842,6.58103 6.3207,21.58745 -7.36046,18.1143 -9.97363,36.06044 -8.50547,58.4117 1.5899,24.20347 6.85614,36.29359 21.90052,50.27904 43.45556,40.39641 51.75599,57.20701 43.7928,88.69187 -4.23603,16.74824 -8.53311,22.51041 -19.96675,26.77439 -17.81118,6.64231 -59.44361,9.21653 -92.2629,5.70481 z"
       id="path1" /></g></svg>
